<svg width="404" height="65" viewBox="0 0 404 65" fill="none" xmlns="http://www.w3.org/2000/svg">
<path d="M29.156 1.476L21.156 53.628L11.644 44.116H51.4L54.4 62.976H0L8 1.476H29.156Z" fill="black"/>
<path d="M77.0365 34.768C77.0365 37.0093 77.4191 38.95 78.1845 40.59C79.0045 42.1753 80.2345 43.4053 81.8745 44.28C83.5145 45.1547 85.6191 45.592 88.1885 45.592C90.8125 45.592 92.9445 45.182 94.5845 44.362C96.2245 43.4873 97.4271 42.23 98.1925 40.59C98.9578 38.95 99.3405 37.0093 99.3405 34.768L104.34 1.476H125.496L120.496 35.916C120.496 41.656 119.157 46.658 116.478 50.922C113.8 55.186 110.028 58.5207 105.162 60.926C100.352 63.2767 94.6938 64.452 88.1885 64.452C81.7378 64.452 76.0798 63.2767 71.2145 60.926C66.4038 58.5207 62.6318 55.186 59.8985 50.922C57.2198 46.658 55.8805 41.656 55.8805 35.916L60.8805 1.476H82.0365L77.0365 34.768Z" fill="black"/>
<path d="M198.976 36.326C198.32 41.9567 196.379 46.8767 193.154 51.086C189.983 55.2953 185.774 58.5753 180.526 60.926C175.278 63.2767 169.264 64.452 162.486 64.452C155.16 64.452 148.764 63.1127 143.298 60.434C137.831 57.7553 133.567 54.0107 130.506 49.2C127.499 44.3347 125.996 38.6767 125.996 32.226C125.996 25.7753 127.499 20.1447 130.506 15.334C133.567 10.4687 137.831 6.69667 143.298 4.018C148.764 1.33933 155.16 0 162.486 0C169.264 0 175.278 1.17533 180.526 3.526C185.774 5.87666 189.983 9.15666 193.154 13.366C196.379 17.5753 198.32 22.4953 198.976 28.126H177.738C177.246 25.994 176.344 24.19 175.032 22.714C173.72 21.1833 171.998 20.0353 169.866 19.27C167.788 18.45 165.328 18.04 162.486 18.04C159.315 18.04 156.582 18.614 154.286 19.762C152.044 20.8553 150.322 22.468 149.12 24.6C147.917 26.732 147.316 29.274 147.316 32.226C147.316 35.178 147.917 37.72 149.12 39.852C150.322 41.9293 152.044 43.542 154.286 44.69C156.582 45.838 159.315 46.412 162.486 46.412C165.328 46.412 167.788 46.0567 169.866 45.346C171.998 44.5807 173.72 43.46 175.032 41.984C176.344 40.4533 177.246 38.5673 177.738 36.326H198.976Z" fill="black"/>
<path d="M257.145 24.928V39.524H210.815V24.928H257.145ZM225.329 32.226L221.557 55.104L213.521 46.248H260.179V62.976H200.647L205.157 32.226L200.647 1.476H259.769V18.204H213.521L221.557 9.348L225.329 32.226Z" fill="black"/>
<path d="M322.57 47.56L316.83 48.954L309.83 1.476H330.33L337.33 62.976H310.844L280.34 15.58L286.08 14.186L293.08 62.976H272.58L265.58 1.476H292.886L322.57 47.56Z" fill="black"/>
<path d="M359.813 10.578H380.969L388.969 62.976H367.813L359.813 10.578ZM337.673 1.476H400.109L403.109 20.336H340.673L337.673 1.476Z" fill="black"/>
</svg>
